# xmcd
# Track frame offsets:
# 150
# 18312
# 33318
# 50399
# 65013
# 84229
# 102767
# 121568
# 137405
#
# Disc length: 2064 seconds
# Revision: 0
# Processed by: cddbd v1.5.1PL0 Copyright (c) Steve Scherf et al.
# Submitted via: VisiTrax 2.9.10.228 - For more info visit www.synapsa.com
#
DISCID=63080e09
DTITLE=Various Artist - Hits Monthly Nashville  PHN0402
DYEAR=1900
DGENRE=Karaoke
TTITLE0=Rimes, LeAnn - This Love
TTITLE1=Blue Country - Good Little Girls
TTITLE2=Howard, Rebecca Lynn - I Need A Vacation
TTITLE3=Mcbride, Martina - In My Daughter's Eyes
TTITLE4=Wilkinson, Amanda - Gone From Love Too Long
TTITLE5=Allan, Gary - Songs About Rain
TTITLE6=Keith, Toby - American Soldier
TTITLE7=Isaacs, Sonya - No Regrets Yet
TTITLE8=Johnson, Carolyn Dawn - Simple Life
EXTD=
EXTT0=
EXTT1=
EXTT2=
EXTT3=
EXTT4=
EXTT5=
EXTT6=
EXTT7=
EXTT8=
PLAYORDER=
